# xmcd
#
# Track frame offsets: 
#        150
#        18058
#        44461
#        71017
#        87773
#        103037
#        113238
#        133740
#        149569
#        159304
#        177947
#        198980
#        216529
#        228648
#        248638
#        264027
#
# Disc length: 3897 seconds
#
# Revision: 0
# Processed by: cddbd v1.5.2PL0 Copyright (c) Steve Scherf et al.
# Submitted via: ExactAudioCopyFreeDBPlugin 1.0
#
DISCID=e00f3710
DTITLE=Various Artist - Delmark 60 Years Of Blues 
DYEAR=2013
DGENRE=Modern Electric Blues 
TTITLE0=Studebaker John's Maxwell Street Kings - When They Played The 
TTITLE0=Real Blues
TTITLE1=Junior Wells - Rock Me Baby (previously unreleased)
TTITLE2=Linsey Alexander - Raffle Ticket
TTITLE3=Magic Sam - I Don't Want No Woman
TTITLE4=Quintus McCormick - Fifty - Fifty
TTITLE5=Little Walter Trio - Just Keep Lovin' Her (previously unreleas
TTITLE5=ed alternate)
TTITLE6=Giles Corey's Stoned Soul - Oh, Mademoiselle (previously unrel
TTITLE6=eased)
TTITLE7=Eddie C. Campbell - Big World
TTITLE8=Big Joe Williams - '44' Blues (previously unreleased)
TTITLE9=Sharon Lewis and Texas Fire - Blues Train
TTITLE10=Lurrie Bell - She's A Good 'Un
TTITLE11=Mississippi Heat - Let's Live It Up!
TTITLE12=Detroit Jr. - Key To The Highway (previously unreleased)
TTITLE13=Tail Dragger - Tend To Your Business
TTITLE14=Sleepy John Estes - Stop That Thing (previously unreleased)
TTITLE15=Toronzo Cannon - John The Conquer Root
EXTD=
EXTT0=
EXTT1=
EXTT2=
EXTT3=
EXTT4=
EXTT5=
EXTT6=
EXTT7=
EXTT8=
EXTT9=
EXTT10=
EXTT11=
EXTT12=
EXTT13=
EXTT14=
EXTT15=
PLAYORDER=
